# xmcd
#
# Track frame offsets: 
#        150
#        11257
#        28285
#        39545
#        52256
#        63299
#        75085
#        88701
#        100365
#        116215
#        124511
#        135491
#        145227
#        156157
#        167447
#        179809
#        191773
#        206494
#
# Disc length: 2932 seconds
#
# Revision: 2
# Processed by: cddbd v1.5.2PL0 Copyright (c) Steve Scherf et al.
# Submitted via: ExactAudioCopyFreeDBPlugin 1.0
#
DISCID=f70b7212
DTITLE=Various Artist - True Country CD2
DYEAR=2006
DGENRE=Country
TTITLE0=Roger Miller - King Of The Road
TTITLE1=C W McCall - Convoy
TTITLE2=Donna Fargo - The Happiest Girl In The Whole USA
TTITLE3=Freddy Fender - Wasted Days And Wasted Nights
TTITLE4=Brenda Lee - Fool
TTITLE5=Jerry Lee Lewis - Whats Made Milwaukee Famous
TTITLE6=Conway Twitty - You've Never Been This Far Before
TTITLE7=Jack Green - There Goes My Everything
TTITLE8=Narvel Felts - Reconsider Me
TTITLE9=Hank Williams Jr - Long Gone Lonesome Blues
TTITLE10=Statler Brothers - Bed Of Roses
TTITLE11=Charlie Rich - Mohair Sam
TTITLE12=Faron Young - The Yellow Bandana
TTITLE13=Leroy Pullins - I'm A Nut
TTITLE14=Tom T Hall - The Year That Clayton Delaney Died
TTITLE15=Loretta Lynn and Conway Twitty - After The Fire Is Gone
TTITLE16=Jeanne Pruett - Satin Sheets
TTITLE17=Kenny Rogers - Ruby Don't Take Your Love To Town
EXTD=
EXTT0=
EXTT1=
EXTT2=
EXTT3=
EXTT4=
EXTT5=
EXTT6=
EXTT7=
EXTT8=
EXTT9=
EXTT10=
EXTT11=
EXTT12=
EXTT13=
EXTT14=
EXTT15=
EXTT16=
EXTT17=
PLAYORDER=
